<?xml version="1.0" ?><!DOCTYPE svg  PUBLIC '-//W3C//DTD SVG 1.1//EN'  'http://www.w3.org/Graphics/SVG/1.1/DTD/svg11.dtd'><svg enable-background="new 0 0 64 64" height="64px" id="Layer_1" version="1.1" viewBox="0 0 64 64" width="64px" xml:space="preserve" xmlns="http://www.w3.org/2000/svg" xmlns:xlink="http://www.w3.org/1999/xlink"><path d="M32,7.174C18.311,7.174,7.174,18.311,7.174,32c0,13.689,11.137,24.826,24.826,24.826c13.689,0,24.826-11.137,24.826-24.826  C56.826,18.311,45.689,7.174,32,7.174z M33.199,18.896c1.025-1.2,2.755-2.092,4.183-2.149c0.183,1.661-0.489,3.331-1.477,4.531  c-0.993,1.199-2.618,2.134-4.212,2.011C31.477,21.657,32.281,19.961,33.199,18.896z M41.32,41.61  c-1.183,1.73-2.409,3.45-4.343,3.485c-1.902,0.036-2.513-1.126-4.686-1.126c-2.175,0-2.853,1.092-4.651,1.162  c-1.866,0.071-3.288-1.867-4.481-3.59c-2.44-3.525-4.303-9.962-1.799-14.305c1.24-2.158,3.463-3.524,5.874-3.561  c1.832-0.032,3.564,1.236,4.683,1.236c1.121,0,3.226-1.526,5.435-1.301c0.925,0.038,3.523,0.373,5.192,2.811  c-0.133,0.087-3.101,1.812-3.065,5.407c0.039,4.294,3.767,5.722,3.809,5.741C43.254,37.671,42.69,39.608,41.32,41.61z"/></svg>